<svg version="1.1" id="Layer_1" xmlns="http://www.w3.org/2000/svg" xmlns:xlink="http://www.w3.org/1999/xlink" x="0px" y="0px"
	 width="100%" viewBox="0 0 1000 180" enable-background="new 0 0 1000 180" xml:space="preserve">
<path fill="#B8E9FF" opacity="1.000000" stroke="none" 
	d="
M512.000000,1.000000 
	C557.354797,1.000000 602.709534,1.000000 648.578064,1.355202 
	C642.605652,10.415829 638.713745,20.102266 637.890442,31.395124 
	C635.939697,43.815041 637.112976,55.245216 644.418274,65.694191 
	C644.714722,66.709335 645.002930,67.497002 645.431152,68.620956 
	C644.414062,70.713753 643.447571,72.639893 642.064026,74.195000 
	C637.914856,78.858620 637.939270,79.322372 643.450256,81.676720 
	C647.251404,83.300591 651.065125,84.894913 654.875610,86.496750 
	C659.894958,88.606758 660.349243,88.271767 660.606323,82.743690 
	C660.771851,79.185883 659.456421,74.828728 665.233765,73.851547 
	C666.020630,73.619057 666.517761,73.364929 667.397522,73.093231 
	C673.660461,69.703438 679.965454,66.893021 685.328979,62.837456 
	C695.289612,55.305882 702.660828,45.718693 705.006165,32.785576 
	C705.058716,32.594570 705.041626,32.198727 705.319702,32.054871 
	C705.774963,30.955875 705.952209,30.000734 706.339600,28.634777 
	C706.205811,24.116985 705.861816,20.010014 705.520752,15.559340 
	C703.015869,10.477090 700.507935,5.738541 698.000000,0.999996 
	C798.977234,1.000000 899.954529,1.000000 1000.965881,1.000000 
	C1000.965881,60.963730 1000.965881,120.927483 1000.965881,180.945618 
	C667.778015,180.945618 334.555969,180.945618 1.166976,180.945618 
	C1.166976,121.000305 1.166976,61.000225 1.166976,1.000000 
	C91.771698,1.000000 182.417999,1.000000 273.528564,1.285098 
	C273.637665,2.010547 273.282471,2.450898 272.596252,2.972755 
	C266.307220,9.161578 262.645752,16.164347 263.734253,25.378389 
	C263.786560,26.490328 263.809631,27.231714 263.651184,28.142841 
	C263.632538,28.877493 263.795380,29.442402 263.958496,30.410994 
	C266.240570,36.644386 268.522339,42.474094 270.890320,48.643402 
	C276.423157,60.052021 284.221466,68.523178 296.707031,72.351624 
	C299.957672,73.490494 299.039581,76.041634 299.125458,78.368164 
	C298.947540,80.107635 298.927704,81.571846 298.887482,83.417984 
	C299.509949,84.141533 300.256622,84.894005 300.779663,84.761803 
	C306.557739,83.301277 312.301117,81.703354 318.335632,80.110001 
	C318.085663,78.697670 317.553925,77.317955 316.963013,75.646446 
	C316.521149,74.904411 316.138519,74.454178 315.708923,73.720627 
	C315.107697,72.932106 314.553345,72.426903 313.966309,71.832367 
	C313.933563,71.743042 313.760956,71.662941 313.582825,71.382401 
	C313.169373,70.732986 312.934052,70.364105 312.885925,69.710419 
	C314.398407,67.688660 315.723694,65.951714 317.330933,64.026596 
	C319.982208,58.370480 323.047028,53.089771 324.579742,47.396584 
	C328.032959,34.569878 327.768799,21.828230 320.992310,9.494884 
	C318.605133,6.612339 316.270111,4.066391 313.991028,1.395286 
	C314.046936,1.270128 314.000000,1.000000 314.000000,1.000000 
	C351.354767,1.000000 388.709534,1.000000 426.534088,1.356795 
	C417.310730,16.123278 413.910980,31.761915 419.177673,48.493469 
	C425.181030,67.565140 438.287994,79.464493 457.830902,83.998795 
	C459.050018,84.281654 460.580627,83.221825 462.044617,83.184280 
	C462.489502,84.055634 462.818268,84.907341 463.228088,84.948303 
	C476.186005,86.243164 488.338715,84.282890 499.195465,75.908310 
	C513.260315,66.246574 520.934998,53.210930 522.071960,36.303677 
	C522.949219,23.258106 518.861084,11.767387 512.000000,1.000000 
M124.533150,124.526367 
	C139.790604,128.309250 153.777252,124.961922 166.577179,116.447060 
	C169.841599,114.275475 172.178802,110.710037 175.532272,107.349419 
	C178.812012,106.215813 182.156296,105.238266 185.357468,103.914650 
	C191.199936,101.498886 193.375549,96.579895 190.964523,91.253120 
	C188.957916,91.761978 186.899338,92.284019 184.967209,91.937431 
	C190.628571,77.380707 187.410217,63.289402 180.391022,50.633900 
	C165.081711,23.031446 125.625977,17.889149 102.893867,39.827469 
	C88.771027,53.457150 83.811134,70.194138 88.517776,89.059883 
	C91.793861,102.191513 99.232368,112.938034 112.615326,119.389671 
	C116.411240,120.915665 120.207153,122.441650 124.533150,124.526367 
M883.077576,122.667603 
	C910.263245,101.299332 910.572083,59.751453 880.341797,39.525707 
	C852.402832,20.833036 815.310974,32.616642 803.429260,63.580418 
	C792.721558,91.484825 809.566345,123.227783 838.372681,131.139267 
	C847.010193,133.511520 855.451538,132.704361 864.597778,132.282761 
	C869.075562,137.823059 873.855347,139.389923 878.655334,136.891006 
	C883.464661,134.387207 884.725647,130.023102 883.077576,122.667603 
M971.871582,49.962395 
	C975.118774,49.962395 978.365906,49.962395 981.562744,49.962395 
	C981.562744,39.574879 981.562744,29.909246 981.562744,20.334850 
	C971.541931,20.334850 961.992493,20.334850 952.320068,20.334850 
	C952.320068,24.254133 952.320068,27.803749 952.320068,31.616217 
	C955.348389,31.844416 958.051697,32.048126 960.776489,32.253452 
	C960.985718,35.419930 961.155945,37.996994 961.333252,40.679790 
	C964.398743,40.907982 966.979919,41.100121 969.459045,41.284660 
	C970.020752,44.341850 970.513733,47.025280 971.871582,49.962395 
M45.261726,32.892975 
	C48.070930,32.344189 50.880135,31.795401 53.631638,31.257887 
	C53.631638,27.487635 53.631638,23.935574 53.631638,20.445932 
	C43.562000,20.445932 33.898998,20.445932 24.340721,20.445932 
	C24.340721,30.474394 24.340721,40.021641 24.340721,49.673969 
	C28.266085,49.673969 31.815613,49.673969 35.622681,49.673969 
	C35.850220,46.639343 36.052891,43.936394 36.256168,41.225338 
	C39.432453,41.011864 42.009613,40.838661 45.041969,40.634861 
	C45.041969,38.033409 45.041969,35.899860 45.261726,32.892975 
M24.249178,134.907211 
	C24.249178,144.454559 24.249178,154.001907 24.249178,163.593460 
	C34.372017,163.593460 44.037411,163.593460 53.606014,163.593460 
	C53.606014,159.600525 53.606014,156.051743 53.606014,152.371307 
	C50.618805,152.154663 48.042873,151.967834 45.250904,151.765350 
	C45.026066,148.688644 44.828400,145.983749 44.630581,143.276733 
	C41.445904,143.061325 38.866871,142.886871 36.200394,142.706497 
	C35.971172,139.639008 35.778301,137.057983 35.568733,134.253464 
	C31.769266,134.253464 28.335634,134.253464 24.249178,134.907211 
M982.030762,147.510101 
	C982.030762,143.430710 982.030762,139.351318 982.030762,135.416595 
	C977.569702,135.416595 974.015076,135.416595 970.351807,135.416595 
	C970.145813,138.436157 969.969666,141.018509 969.784729,143.728806 
	C966.730286,143.956680 964.144165,144.149612 961.333679,144.359268 
	C961.093689,147.397842 960.879333,150.112106 960.664429,152.833664 
	C957.511414,153.054169 954.923401,153.235168 952.369202,153.413803 
	C952.369202,157.495880 952.369202,161.056656 952.369202,164.695221 
	C962.343323,164.695221 971.914307,164.695221 982.030823,164.695221 
	C982.030823,159.081253 982.030823,153.793991 982.030762,147.510101 
z"/>
<path fill="#6EB4E0" opacity="1.000000" stroke="none" 
	d="
M461.966339,82.786682 
	C460.580627,83.221825 459.050018,84.281654 457.830902,83.998795 
	C438.287994,79.464493 425.181030,67.565140 419.177673,48.493469 
	C413.910980,31.761915 417.310730,16.123278 427.001953,1.356795 
	C432.022095,1.000000 437.044189,1.000000 442.569275,1.421447 
	C443.973206,7.404292 444.874115,12.965689 445.416718,18.399597 
	C444.275146,18.006050 443.484894,17.758924 442.709961,17.470615 
	C439.612305,16.318113 436.111267,15.411625 434.493134,19.080040 
	C432.857910,22.787270 436.095917,24.667711 438.862183,26.338652 
	C440.765930,27.488596 442.643829,28.681299 444.881958,30.071457 
	C441.090363,34.110508 440.974213,37.512768 443.384033,39.034912 
	C444.564941,45.524273 444.023743,51.369793 446.661865,54.686478 
	C449.581360,58.356937 455.409943,59.713516 459.958557,62.433823 
	C461.679047,65.870102 463.412628,68.950317 464.838989,72.261673 
	C464.385193,74.001785 464.238586,75.510765 463.779419,77.166878 
	C459.644257,78.227272 462.209625,80.892021 461.966339,82.786682 
z"/>
<path fill="#047BFC" opacity="1.000000" stroke="none" 
	d="
M697.531372,0.999996 
	C700.507935,5.738541 703.015869,10.477090 705.287659,15.812033 
	C704.410645,17.912394 703.598694,19.367941 703.156799,20.928261 
	C700.458435,30.457203 694.973389,38.184418 687.722839,44.716270 
	C686.505066,45.813366 684.650269,46.203465 683.161377,46.588482 
	C684.284302,44.375481 685.556641,42.582066 686.345825,40.596615 
	C688.779602,34.473915 690.833313,28.277962 686.242920,21.756191 
	C684.244202,13.951051 678.668640,10.459230 672.032288,7.944442 
	C668.885498,6.752009 667.164978,7.523771 665.876282,10.652030 
	C661.837402,20.457075 657.709900,30.229986 653.360657,39.900211 
	C652.005798,42.912605 652.340332,44.897968 655.032593,46.889904 
	C655.932922,48.779751 656.676086,51.166363 658.043152,51.604038 
	C662.867065,53.148376 667.904785,54.024780 672.757446,55.472046 
	C664.086426,61.488533 654.616882,64.553596 644.410034,65.466713 
	C637.112976,55.245216 635.939697,43.815041 638.164062,31.195553 
	C642.336609,25.603415 645.436646,19.842838 650.044006,15.799968 
	C656.436340,10.190835 663.960449,5.871529 671.000000,1.000001 
	C679.687561,1.000000 688.375183,1.000000 697.531372,0.999996 
z"/>
<path fill="#6EB4E0" opacity="1.000000" stroke="none" 
	d="
M511.571533,1.000000 
	C518.861084,11.767387 522.949219,23.258106 522.071960,36.303677 
	C520.934998,53.210930 513.260315,66.246574 499.178223,75.527916 
	C498.904114,72.337105 497.728943,70.773636 494.752319,70.592850 
	C493.874969,69.145035 493.014191,68.029839 492.105530,66.515762 
	C492.758514,63.823849 493.155090,61.378986 494.210968,59.263149 
	C499.754150,48.155678 502.043335,37.221504 493.683380,26.320631 
	C492.305725,24.524233 491.833771,22.019335 490.411285,20.275871 
	C489.388214,19.021868 487.480377,18.489742 485.837219,17.215126 
	C485.533447,16.240593 485.359619,15.686532 485.540863,14.989662 
	C488.978180,12.075019 492.060425,9.303185 495.496918,6.532406 
	C499.394104,6.135113 502.937042,5.736766 506.440430,5.342869 
	C506.326569,4.220376 506.163300,2.610188 506.000000,1.000000 
	C507.714355,1.000000 509.428711,1.000000 511.571533,1.000000 
z"/>
<path fill="#037AFC" opacity="1.000000" stroke="none" 
	d="
M313.531342,1.000000 
	C314.000000,1.000000 314.046936,1.270128 313.928467,1.842113 
	C314.456421,5.119593 315.134949,7.817886 315.743225,10.531927 
	C317.602173,18.826658 318.029663,27.084219 314.629211,35.062832 
	C312.997375,30.979239 312.092834,26.885229 310.300812,23.225809 
	C309.381775,21.348957 306.877167,20.248547 304.884949,18.535534 
	C299.071930,11.700825 292.152771,10.965578 284.303925,13.384483 
	C280.857330,14.446671 279.887146,16.053225 280.838318,19.591795 
	C283.297699,28.740955 285.544128,37.951969 287.638824,47.191956 
	C288.335571,50.265366 289.664124,51.988297 293.029419,52.235382 
	C294.742554,53.066864 296.378632,53.957344 297.953339,53.859589 
	C303.274078,53.529259 307.519440,50.908955 311.209991,47.081650 
	C311.022156,48.784584 310.879944,50.500164 310.054321,51.772087 
	C305.622894,58.598587 301.021362,65.314659 296.478607,72.068863 
	C284.221466,68.523178 276.423157,60.052021 270.959045,48.152557 
	C269.806274,30.114643 274.522675,14.683121 285.000000,1.000000 
	C294.354218,1.000000 303.708466,1.000000 313.531342,1.000000 
z"/>
<path fill="#FCFBFA" opacity="1.000000" stroke="none" 
	d="
M457.000000,0.999995 
	C457.750000,1.000000 458.500000,1.000000 459.665527,1.370595 
	C463.335541,7.958193 466.590057,14.175197 469.220581,19.200203 
	C473.605286,18.437778 477.799713,17.708443 482.043884,17.318583 
	C482.480194,18.935894 482.829102,20.226614 483.261261,21.488844 
	C484.122345,24.003887 485.029114,26.503288 485.928528,29.023857 
	C485.940063,29.038565 485.971436,29.058889 485.925812,29.395290 
	C485.900177,30.409800 485.920135,31.087912 485.634338,31.973070 
	C486.267242,37.161846 487.205963,42.143574 488.179840,47.311939 
	C478.929596,51.181736 469.559723,52.557930 460.008789,52.942970 
	C460.031525,52.934978 460.004425,52.895119 460.045319,52.566933 
	C460.017120,51.802490 459.948029,51.366230 459.905426,50.705364 
	C459.931915,50.480759 459.999359,50.033489 460.282898,49.835594 
	C463.654816,46.266106 460.438171,44.289082 458.917053,41.734818 
	C458.968445,41.521244 459.045990,41.088802 459.359863,40.907673 
	C462.030151,38.293720 461.274384,36.123783 458.804199,34.539223 
	C457.023163,33.396725 454.909149,32.773281 452.883484,31.870995 
	C452.823334,31.823666 452.712769,31.929554 452.541077,31.532078 
	C450.701904,22.690851 449.034393,14.247099 447.263458,5.279614 
	C450.047180,4.692214 452.358093,4.437525 454.475555,3.657552 
	C455.503815,3.278785 456.169922,1.916837 457.000000,0.999995 
z"/>
<path fill="#FCD064" opacity="1.000000" stroke="none" 
	d="
M481.994141,16.979107 
	C477.799713,17.708443 473.605286,18.437778 469.220581,19.200203 
	C466.590057,14.175197 463.335541,7.958193 460.040527,1.370595 
	C471.687561,1.000000 483.375122,1.000000 495.449280,1.354692 
	C495.604797,3.316708 495.373749,4.924031 495.142670,6.531353 
	C492.060425,9.303185 488.978180,12.075019 485.306763,15.048326 
	C483.809753,15.826234 482.901947,16.402670 481.994141,16.979107 
z"/>
<path fill="#259DFF" opacity="1.000000" stroke="none" 
	d="
M284.541931,1.000000 
	C274.522675,14.683121 269.806274,30.114643 270.872833,47.812954 
	C268.522339,42.474094 266.240570,36.644386 264.203918,30.238972 
	C264.628876,29.104774 264.808685,28.546278 265.271332,27.723110 
	C266.341858,23.804937 266.883606,20.075783 267.978455,16.516783 
	C269.397491,11.904002 271.257294,7.426816 272.927307,2.891251 
	C273.282471,2.450898 273.637665,2.010547 273.996399,1.285098 
	C277.361298,1.000000 280.722565,1.000000 284.541931,1.000000 
z"/>
<path fill="#299EFF" opacity="1.000000" stroke="none" 
	d="
M670.531433,1.000001 
	C663.960449,5.871529 656.436340,10.190835 650.044006,15.799968 
	C645.436646,19.842838 642.336609,25.603415 638.290649,30.797409 
	C638.713745,20.102266 642.605652,10.415829 649.045898,1.355202 
	C656.020935,1.000000 663.041931,1.000000 670.531433,1.000001 
z"/>
<path fill="#616264" opacity="1.000000" stroke="none" 
	d="
M456.535339,0.999995 
	C456.169922,1.916837 455.503815,3.278785 454.475555,3.657552 
	C452.358093,4.437525 450.047180,4.692214 447.263458,5.279614 
	C449.034393,14.247099 450.701904,22.690851 452.106934,31.618008 
	C450.606689,30.895313 448.789764,29.902763 448.250153,28.439251 
	C447.078949,25.262838 446.560425,21.845764 445.775055,18.527084 
	C444.874115,12.965689 443.973206,7.404292 443.036133,1.421447 
	C447.356903,1.000000 451.713806,1.000000 456.535339,0.999995 
z"/>
<path fill="#3D5165" opacity="1.000000" stroke="none" 
	d="
M495.496918,6.532407 
	C495.373749,4.924031 495.604797,3.316708 495.917908,1.354692 
	C499.030609,1.000000 502.061188,1.000000 505.545898,1.000000 
	C506.163300,2.610188 506.326569,4.220376 506.440430,5.342869 
	C502.937042,5.736766 499.394104,6.135113 495.496918,6.532407 
z"/>
<path fill="#B9A1E2" opacity="1.000000" stroke="none" 
	d="
M864.031616,131.888596 
	C855.451538,132.704361 847.010193,133.511520 838.372681,131.139267 
	C809.566345,123.227783 792.721558,91.484825 803.429260,63.580418 
	C815.310974,32.616642 852.402832,20.833036 880.341797,39.525707 
	C910.572083,59.751453 910.263245,101.299332 882.673340,122.769241 
	C881.964050,122.497253 881.658997,122.123634 881.283203,121.459229 
	C881.180298,120.773224 881.148132,120.378021 881.418945,119.806046 
	C886.011536,108.344109 890.339722,97.073074 894.490479,85.737038 
	C894.727905,85.088593 893.515747,83.909401 892.966187,82.707573 
	C892.937744,82.258728 892.921387,82.079529 892.911255,81.530205 
	C890.082520,75.555397 887.247437,69.950714 884.146545,64.059753 
	C865.090027,56.828205 846.299377,49.882931 826.945129,42.729347 
	C821.188171,58.609356 815.633606,73.863899 810.190613,89.158173 
	C809.937195,89.870255 810.681824,90.937500 811.021362,92.208969 
	C815.464844,94.415062 819.848572,96.251526 824.187134,98.476143 
	C823.231018,101.613670 822.320129,104.363060 821.170044,107.184753 
	C821.520752,108.824371 822.110779,110.391685 822.751160,112.092743 
	C826.513855,110.219673 829.693298,108.804359 832.706604,107.095924 
	C836.773010,104.790443 840.689880,103.730400 845.237183,106.085663 
	C847.500854,107.258141 850.281372,107.432755 853.090088,108.224106 
	C853.555664,108.964272 853.759216,109.539070 854.029663,110.452118 
	C855.078979,111.195045 856.061462,111.599716 857.031738,112.416374 
	C857.367859,114.558556 857.435059,116.409882 858.118347,117.995720 
	C860.000122,122.363197 862.139954,126.619499 864.124512,131.159485 
	C864.071289,131.399185 864.031616,131.888596 864.031616,131.888596 
z"/>
<path fill="#84CF91" opacity="1.000000" stroke="none" 
	d="
M112.057930,119.000534 
	C99.232368,112.938034 91.793861,102.191513 88.517776,89.059883 
	C83.811134,70.194138 88.771027,53.457150 102.893867,39.827469 
	C125.625977,17.889149 165.081711,23.031446 180.391022,50.633900 
	C187.410217,63.289402 190.628571,77.380707 184.688858,92.531860 
	C183.342209,93.444710 182.273926,93.763123 181.157257,93.680008 
	C176.698227,79.646103 172.287552,66.013710 167.877350,52.044830 
	C167.663345,50.917980 167.478836,50.118038 167.229828,49.338703 
	C163.742004,38.422726 163.739868,38.423409 152.747925,41.860474 
	C150.980072,38.930538 148.868790,37.096985 145.676147,38.360634 
	C142.499039,39.618141 141.528259,42.347286 141.690796,45.775253 
	C135.856094,47.656513 130.395157,49.403221 124.678192,50.912971 
	C122.123505,49.579414 119.623077,47.306412 117.572807,47.658054 
	C114.385651,48.204697 113.428253,51.440491 113.704109,54.851807 
	C110.182365,56.138847 107.030479,57.307808 103.478531,58.554546 
	C100.148994,59.498737 97.219521,60.365147 93.619553,61.429863 
	C95.553833,66.341942 97.265808,70.689453 98.984756,75.426056 
	C100.555092,80.704544 102.191879,85.571922 103.666130,90.488045 
	C106.511879,99.977669 109.265884,109.494804 112.057930,119.000534 
z"/>
<path fill="#033F7A" opacity="1.000000" stroke="none" 
	d="
M296.707031,72.351624 
	C301.021362,65.314659 305.622894,58.598587 310.054321,51.772087 
	C310.879944,50.500164 311.022156,48.784584 311.342010,46.744205 
	C312.465851,42.553898 313.727448,38.893139 314.989014,35.232376 
	C318.029663,27.084219 317.602173,18.826658 315.743225,10.531927 
	C315.134949,7.817886 314.456421,5.119593 313.872559,1.967271 
	C316.270111,4.066391 318.605133,6.612339 320.986481,9.922256 
	C321.682617,14.898803 322.682922,19.091928 322.918030,23.327524 
	C323.694794,37.323307 320.458069,50.792179 317.049011,64.214767 
	C315.723694,65.951714 314.398407,67.688660 312.581726,69.789604 
	C312.647217,70.656715 313.204102,71.159828 313.760956,71.662941 
	C313.760956,71.662941 313.933563,71.743042 313.993408,72.142029 
	C314.620758,73.028664 315.188324,73.516296 315.755859,74.003937 
	C316.138519,74.454178 316.521149,74.904411 316.987366,76.009293 
	C317.398560,77.823502 317.726196,78.983063 318.053864,80.142624 
	C312.301117,81.703354 306.557739,83.301277 300.779663,84.761803 
	C300.256622,84.894005 299.509949,84.141533 299.127747,83.266815 
	C299.353394,81.186783 299.318481,79.639839 299.283508,78.092896 
	C299.039581,76.041634 299.957672,73.490494 296.707031,72.351624 
M305.726715,74.474220 
	C306.494293,74.569771 307.261871,74.665314 308.029449,74.760857 
	C308.038544,74.562836 308.047668,74.364822 308.056793,74.166801 
	C307.431396,74.166801 306.806030,74.166801 305.726715,74.474220 
M306.049164,72.181534 
	C305.932404,72.274277 305.815674,72.367020 305.698914,72.459770 
	C305.784027,72.554131 305.884369,72.739502 305.951813,72.728233 
	C306.423920,72.649216 306.889252,72.529587 307.356750,72.422974 
	C307.089508,72.314568 306.822296,72.206161 306.049164,72.181534 
z"/>
<path fill="#033F7A" opacity="1.000000" stroke="none" 
	d="
M683.089844,46.920235 
	C684.650269,46.203465 686.505066,45.813366 687.722839,44.716270 
	C694.973389,38.184418 700.458435,30.457203 703.156799,20.928261 
	C703.598694,19.367941 704.410645,17.912394 705.284668,16.155735 
	C705.861816,20.010014 706.205811,24.116985 706.079102,28.779594 
	C705.419495,30.289730 705.230591,31.244228 705.041626,32.198730 
	C705.041626,32.198727 705.058716,32.594570 704.662720,32.839619 
	C703.418335,34.249310 702.570435,35.414261 701.721497,36.578518 
	C697.960327,41.736919 694.745728,47.433933 690.314209,51.931984 
	C682.959412,59.397167 674.822327,66.091644 667.014832,73.110786 
	C666.517761,73.364929 666.020630,73.619057 664.983398,73.631485 
	C660.336548,74.000793 656.283569,75.013039 652.425476,72.130989 
	C650.284424,70.531570 647.684326,69.546608 645.291138,68.284676 
	C645.002930,67.497002 644.714722,66.709335 644.418274,65.694191 
	C654.616882,64.553596 664.086426,61.488533 673.116028,55.398003 
	C676.748962,52.311016 679.919434,49.615623 683.089844,46.920235 
z"/>
<path fill="#3D5165" opacity="1.000000" stroke="none" 
	d="
M181.205627,94.081528 
	C182.273926,93.763123 183.342209,93.444710 184.625641,92.966171 
	C186.899338,92.284019 188.957916,91.761978 190.964523,91.253120 
	C193.375549,96.579895 191.199936,101.498886 185.357468,103.914650 
	C182.156296,105.238266 178.812012,106.215813 174.845856,107.570190 
	C162.144012,111.520836 150.128571,115.250702 138.077682,118.602486 
	C139.067947,115.711113 140.840897,113.223465 140.928238,110.677979 
	C141.034836,107.570969 142.488754,106.817772 144.879471,106.043556 
	C157.007538,102.115921 169.100418,98.079704 181.205627,94.081528 
z"/>
<path fill="#A2A8AB" opacity="1.000000" stroke="none" 
	d="
M112.336624,119.195099 
	C109.265884,109.494804 106.511879,99.977669 103.666130,90.488045 
	C102.191879,85.571922 100.555092,80.704544 99.345612,75.319794 
	C102.286758,74.052727 104.874031,73.280998 107.640717,72.887177 
	C111.572784,84.745728 115.235832,96.256889 119.127869,107.690109 
	C120.448769,111.570358 122.347549,115.253883 123.979317,119.439468 
	C123.985275,121.223640 123.994171,122.595634 124.003067,123.967636 
	C120.207153,122.441650 116.411240,120.915665 112.336624,119.195099 
z"/>
<path fill="#70A9D8" opacity="1.000000" stroke="none" 
	d="
M971.439209,49.835552 
	C970.513733,47.025280 970.020752,44.341850 969.459045,41.284660 
	C966.979919,41.100121 964.398743,40.907982 961.333252,40.679790 
	C961.155945,37.996994 960.985718,35.419930 960.776489,32.253452 
	C958.051697,32.048126 955.348389,31.844416 952.320068,31.616217 
	C952.320068,27.803749 952.320068,24.254133 952.320068,20.334850 
	C961.992493,20.334850 971.541931,20.334850 981.562744,20.334850 
	C981.562744,29.909246 981.562744,39.574879 981.562744,49.962395 
	C978.365906,49.962395 975.118774,49.962395 971.439209,49.835552 
M972.972412,26.422714 
	C973.167236,30.316046 976.183655,29.091789 978.068909,28.780310 
	C978.857056,28.650089 980.026794,26.105886 979.692200,25.103479 
	C979.277588,23.861687 977.617004,22.580273 976.252136,22.210089 
	C973.736389,21.527742 972.701477,23.090708 972.972412,26.422714 
M979.754700,46.051636 
	C979.867004,40.477753 979.586182,40.280010 973.423340,41.655586 
	C973.423340,43.644054 973.423340,45.625595 973.423340,48.369015 
	C975.830811,47.747952 977.626221,47.284775 979.754700,46.051636 
M955.827209,28.974941 
	C957.399231,28.974941 958.971252,28.974941 960.741211,28.974941 
	C960.741211,26.457869 960.741211,24.583466 960.741211,22.768215 
	C954.181274,21.491066 953.056824,22.738480 955.827209,28.974941 
M967.440247,29.018360 
	C970.986267,28.975098 970.242126,26.257990 969.911682,24.395927 
	C969.751587,23.493343 968.017944,22.283995 966.997559,22.284876 
	C965.977539,22.285755 964.248047,23.497623 964.087708,24.401670 
	C963.757629,26.263916 963.014648,28.981838 967.440247,29.018360 
M978.208374,31.982555 
	C976.479187,32.652576 974.592224,33.099045 973.122681,34.136703 
	C972.712769,34.426132 973.269531,37.355183 973.844604,37.526917 
	C975.461670,38.009857 977.319275,37.687553 979.082031,37.682751 
	C979.062744,35.871555 979.043457,34.060360 978.208374,31.982555 
M970.074402,35.441788 
	C969.146240,34.270992 968.411987,32.759151 967.207520,32.074234 
	C966.610779,31.734900 964.334412,32.801552 964.244507,33.434731 
	C964.045959,34.832531 964.751404,36.358742 965.088013,37.832600 
	C966.730469,37.324131 968.372864,36.815662 970.074402,35.441788 
z"/>
<path fill="#70A9D8" opacity="1.000000" stroke="none" 
	d="
M45.151848,33.329643 
	C45.041969,35.899860 45.041969,38.033409 45.041969,40.634861 
	C42.009613,40.838661 39.432453,41.011864 36.256168,41.225338 
	C36.052891,43.936394 35.850220,46.639343 35.622681,49.673969 
	C31.815613,49.673969 28.266085,49.673969 24.340721,49.673969 
	C24.340721,40.021641 24.340721,30.474394 24.340721,20.445932 
	C33.898998,20.445932 43.562000,20.445932 53.631638,20.445932 
	C53.631638,23.935574 53.631638,27.487635 53.631638,31.257887 
	C50.880135,31.795401 48.070930,32.344189 45.151848,33.329643 
M29.642296,47.901039 
	C35.433022,47.634617 32.516468,43.976723 32.579769,40.177094 
	C29.978886,41.153416 27.207781,41.352524 26.427517,42.702396 
	C25.481773,44.338551 25.285889,47.403763 29.642296,47.901039 
M30.422737,29.027653 
	C34.315826,28.832582 33.091969,25.816307 32.780293,23.931025 
	C32.649979,23.142773 30.105766,21.973164 29.103422,22.307829 
	C27.861599,22.722443 26.580244,24.383102 26.210070,25.747974 
	C25.527752,28.263744 27.090624,29.298700 30.422737,29.027653 
M50.051598,22.245264 
	C44.477688,22.133060 44.279964,22.413879 45.655598,28.576641 
	C47.644081,28.576641 49.625614,28.576641 52.369045,28.576641 
	C51.747959,26.169125 51.284771,24.373667 50.051598,22.245264 
M32.737839,32.849281 
	C30.343302,31.721573 27.784258,30.462175 26.269575,33.831200 
	C25.835701,34.796242 26.204447,37.046165 26.876482,37.388298 
	C28.196732,38.060421 30.294445,38.385548 31.486710,37.753338 
	C32.430618,37.252819 32.502644,35.108040 32.737839,32.849281 
M42.083370,24.659355 
	C40.659534,23.829367 39.235703,22.999378 37.811867,22.169390 
	C37.183163,23.627968 36.120586,25.079725 36.097519,26.547819 
	C36.084805,27.356640 37.707153,28.667740 38.787792,28.922098 
	C41.370968,29.530117 42.338947,27.990505 42.083370,24.659355 
M35.987507,36.304043 
	C37.630322,36.811821 39.273136,37.319599 40.915947,37.827377 
	C41.250774,36.352985 41.954330,34.825748 41.754017,33.428051 
	C41.663353,32.795452 39.386890,31.732872 38.787327,32.073078 
	C37.584404,32.755638 36.852459,34.268223 35.987507,36.304043 
z"/>
<path fill="#70A9D8" opacity="1.000000" stroke="none" 
	d="
M24.575588,134.580338 
	C28.335634,134.253464 31.769266,134.253464 35.568733,134.253464 
	C35.778301,137.057983 35.971172,139.639008 36.200394,142.706497 
	C38.866871,142.886871 41.445904,143.061325 44.630581,143.276733 
	C44.828400,145.983749 45.026066,148.688644 45.250904,151.765350 
	C48.042873,151.967834 50.618805,152.154663 53.606014,152.371307 
	C53.606014,156.051743 53.606014,159.600525 53.606014,163.593460 
	C44.037411,163.593460 34.372017,163.593460 24.249178,163.593460 
	C24.249178,154.001907 24.249178,144.454559 24.575588,134.580338 
M27.827171,142.974945 
	C29.399210,142.974945 30.971251,142.974945 32.741310,142.974945 
	C32.741310,140.457870 32.741310,138.583466 32.741310,136.768234 
	C26.181501,135.491043 25.056971,136.738541 27.827171,142.974945 
M49.305313,154.970154 
	C47.865105,155.779465 45.868973,156.272736 45.169506,157.503143 
	C44.656776,158.405060 45.531670,161.235596 46.345127,161.501297 
	C47.792320,161.973999 49.661465,161.154922 51.354122,160.876129 
	C50.956699,158.925583 50.559277,156.975037 49.305313,154.970154 
M32.746380,155.880264 
	C30.221121,154.802246 27.370836,153.271713 26.221703,157.281357 
	C25.560116,159.589813 26.081490,161.778320 29.481382,161.952133 
	C33.904816,162.178284 32.999664,159.244171 32.746380,155.880264 
M33.018372,148.559769 
	C32.975189,145.013672 30.257998,145.758011 28.395966,146.088257 
	C27.493441,146.248322 26.283983,147.981964 26.284864,149.002274 
	C26.285744,150.022369 27.497549,151.752075 28.401554,151.912292 
	C30.263756,152.242325 32.981747,152.985382 33.018372,148.559769 
M39.434757,154.980774 
	C38.261017,155.910614 36.437077,156.654755 36.103027,157.824417 
	C35.791561,158.914993 36.725845,161.019562 37.742050,161.632004 
	C38.624641,162.163940 40.388947,161.232895 41.763592,160.948380 
	C41.278698,158.977951 40.793800,157.007507 39.434757,154.980774 
M42.012489,147.695938 
	C40.369671,147.188171 38.726852,146.680420 37.084038,146.172653 
	C36.749218,147.647049 36.045673,149.174286 36.245998,150.571991 
	C36.336666,151.204590 38.613144,152.267151 39.212719,151.926956 
	C40.415627,151.244370 41.147556,149.731781 42.012489,147.695938 
z"/>
<path fill="#70A9D8" opacity="1.000000" stroke="none" 
	d="
M982.030762,148.008408 
	C982.030823,153.793991 982.030823,159.081253 982.030823,164.695221 
	C971.914307,164.695221 962.343323,164.695221 952.369202,164.695221 
	C952.369202,161.056656 952.369202,157.495880 952.369202,153.413803 
	C954.923401,153.235168 957.511414,153.054169 960.664429,152.833664 
	C960.879333,150.112106 961.093689,147.397842 961.333679,144.359268 
	C964.144165,144.149612 966.730286,143.956680 969.784729,143.728806 
	C969.969666,141.018509 970.145813,138.436157 970.351807,135.416595 
	C974.015076,135.416595 977.569702,135.416595 982.030762,135.416595 
	C982.030762,139.351318 982.030762,143.430710 982.030762,148.008408 
M972.961853,159.446838 
	C972.701538,161.914932 973.744080,163.472214 976.256042,162.789642 
	C977.620178,162.418976 979.278748,161.134537 979.692200,159.892166 
	C980.025513,158.890381 978.853882,156.350311 978.063477,156.219131 
	C976.177979,155.906219 973.160583,154.686844 972.961853,159.446838 
M961.029907,160.305313 
	C960.220581,158.865097 959.727295,156.868973 958.496887,156.169495 
	C957.594971,155.656769 954.764343,156.531693 954.498718,157.345093 
	C954.026123,158.792328 954.845093,160.661407 955.123901,162.354050 
	C957.074402,161.956650 959.024963,161.559235 961.029907,160.305313 
M979.900452,140.632599 
	C979.416443,135.331665 976.133301,137.207382 973.372437,137.678040 
	C973.372437,139.917313 973.372437,141.788025 973.372437,145.472137 
	C976.201233,143.742569 978.047180,142.613953 979.900452,140.632599 
M975.598267,153.085373 
	C977.023010,152.240341 978.713867,151.621017 979.726929,150.426819 
	C980.077087,150.014038 978.973450,147.413742 978.124939,147.155212 
	C976.748169,146.735764 975.034180,147.423325 973.462524,147.643539 
	C973.882446,149.437149 974.302368,151.230743 975.598267,153.085373 
M970.021973,157.721619 
	C968.227722,157.303101 966.433411,156.884583 964.639160,156.466080 
	C964.420532,158.038330 963.734497,159.753632 964.155762,161.130035 
	C964.415344,161.978088 967.018127,163.077820 967.431396,162.726486 
	C968.624634,161.712158 969.241455,160.019699 970.021973,157.721619 
M970.073303,149.555389 
	C968.689575,148.695312 967.305786,147.835236 965.922058,146.975143 
	C965.258057,148.067429 964.143555,149.132141 964.074463,150.260834 
	C964.020508,151.141556 965.582703,152.984680 965.879944,152.877930 
	C967.376770,152.340347 968.694153,151.303314 970.073303,149.555389 
z"/>
<path fill="#2A3E58" opacity="1.000000" stroke="none" 
	d="
M494.768921,70.925468 
	C497.728943,70.773636 498.904114,72.337105 498.822327,75.505585 
	C488.338715,84.282890 476.186005,86.243164 463.228088,84.948303 
	C462.818268,84.907341 462.489502,84.055634 462.044617,83.184280 
	C462.209625,80.892021 459.644257,78.227272 464.197388,77.208656 
	C469.636505,76.261887 474.367096,75.525848 479.047943,74.551071 
	C484.311676,73.454910 489.530548,72.143333 494.768921,70.925468 
z"/>
<path fill="#B9BEC2" opacity="1.000000" stroke="none" 
	d="
M124.268112,124.247002 
	C123.994171,122.595634 123.985275,121.223640 124.358887,119.477676 
	C129.233902,122.891685 133.664474,119.953690 138.113129,118.980568 
	C150.128571,115.250702 162.144012,111.520836 174.550735,107.787987 
	C172.178802,110.710037 169.841599,114.275475 166.577179,116.447060 
	C153.777252,124.961922 139.790604,128.309250 124.268112,124.247002 
z"/>
<path fill="#0F487F" opacity="1.000000" stroke="none" 
	d="
M645.431152,68.620956 
	C647.684326,69.546608 650.284424,70.531570 652.425476,72.130989 
	C656.283569,75.013039 660.336548,74.000793 664.693604,73.609848 
	C659.456421,74.828728 660.771851,79.185883 660.606323,82.743690 
	C660.349243,88.271767 659.894958,88.606758 654.875610,86.496750 
	C651.065125,84.894913 647.251404,83.300591 643.450256,81.676720 
	C637.939270,79.322372 637.914856,78.858620 642.064026,74.195000 
	C643.447571,72.639893 644.414062,70.713753 645.431152,68.620956 
z"/>
<path fill="#5F7081" opacity="1.000000" stroke="none" 
	d="
M881.353943,121.750015 
	C881.658997,122.123634 881.964050,122.497253 882.438599,123.040787 
	C884.725647,130.023102 883.464661,134.387207 878.655334,136.891006 
	C873.855347,139.389923 869.075562,137.823059 864.314697,132.085678 
	C864.031616,131.888596 864.071289,131.399185 864.472168,131.124481 
	C866.274536,127.623657 867.675964,124.397522 869.320923,121.029190 
	C870.048035,120.605423 870.531616,120.323845 871.379395,120.088516 
	C874.946960,120.673172 878.150452,121.211586 881.353943,121.750015 
z"/>
<path fill="#0A3156" opacity="1.000000" stroke="none" 
	d="
M667.397522,73.093216 
	C674.822327,66.091644 682.959412,59.397167 690.314209,51.931984 
	C694.745728,47.433933 697.960327,41.736919 701.721497,36.578518 
	C702.570435,35.414261 703.418335,34.249310 704.610107,33.030624 
	C702.660828,45.718693 695.289612,55.305882 685.328979,62.837456 
	C679.965454,66.893021 673.660461,69.703438 667.397522,73.093216 
z"/>
<path fill="#0E3559" opacity="1.000000" stroke="none" 
	d="
M317.330933,64.026596 
	C320.458069,50.792179 323.694794,37.323307 322.918030,23.327524 
	C322.682922,19.091928 321.682617,14.898803 321.038635,10.258852 
	C327.768799,21.828230 328.032959,34.569878 324.579742,47.396584 
	C323.047028,53.089771 319.982208,58.370480 317.330933,64.026596 
z"/>
<path fill="#53B1FF" opacity="1.000000" stroke="none" 
	d="
M272.596252,2.972757 
	C271.257294,7.426816 269.397491,11.904002 267.978455,16.516783 
	C266.883606,20.075783 266.341858,23.804937 265.277832,27.729984 
	C265.001495,28.001532 265.013580,28.013693 265.012024,27.654015 
	C264.575317,26.532171 264.140167,25.770004 263.704987,25.007835 
	C262.645752,16.164347 266.307220,9.161578 272.596252,2.972757 
z"/>
<path fill="#07437B" opacity="1.000000" stroke="none" 
	d="
M299.125488,78.368164 
	C299.318481,79.639839 299.353394,81.186783 299.148071,82.884888 
	C298.927704,81.571846 298.947540,80.107635 299.125488,78.368164 
z"/>
<path fill="#07437B" opacity="1.000000" stroke="none" 
	d="
M318.335632,80.110001 
	C317.726196,78.983063 317.398560,77.823502 317.046570,76.301086 
	C317.553925,77.317955 318.085663,78.697670 318.335632,80.110001 
z"/>
<path fill="#0A3156" opacity="1.000000" stroke="none" 
	d="
M705.319702,32.054871 
	C705.230591,31.244228 705.419495,30.289730 705.868896,29.190413 
	C705.952209,30.000734 705.774963,30.955875 705.319702,32.054871 
z"/>
<path fill="#07437B" opacity="1.000000" stroke="none" 
	d="
M313.582825,71.382401 
	C313.204102,71.159828 312.647217,70.656715 312.394531,70.074417 
	C312.934052,70.364105 313.169373,70.732986 313.582825,71.382401 
z"/>
<path fill="#07437B" opacity="1.000000" stroke="none" 
	d="
M315.708923,73.720627 
	C315.188324,73.516296 314.620758,73.028664 314.026123,72.231361 
	C314.553345,72.426903 315.107697,72.932106 315.708923,73.720627 
z"/>
<path fill="#53B1FF" opacity="1.000000" stroke="none" 
	d="
M264.994995,27.994656 
	C264.808685,28.546278 264.628876,29.104774 264.203613,29.835289 
	C263.795380,29.442402 263.632538,28.877493 263.946533,28.158062 
	C264.620056,28.006924 264.816803,28.010307 265.013580,28.013693 
	C265.013580,28.013693 265.001495,28.001532 264.994995,27.994656 
z"/>
<path fill="#259DFF" opacity="1.000000" stroke="none" 
	d="
M265.012024,27.654015 
	C264.816803,28.010307 264.620056,28.006924 264.127991,27.988319 
	C263.809631,27.231714 263.786560,26.490328 263.734253,25.378391 
	C264.140167,25.770004 264.575317,26.532171 265.012024,27.654015 
z"/>
<path fill="#FED8B5" opacity="1.000000" stroke="none" 
	d="
M485.967194,17.635601 
	C487.480377,18.489742 489.388214,19.021868 490.411285,20.275871 
	C491.833771,22.019335 492.305725,24.524233 493.683380,26.320631 
	C502.043335,37.221504 499.754150,48.155678 494.210968,59.263149 
	C493.155090,61.378986 492.758514,63.823849 491.738525,66.688385 
	C482.661621,68.850082 473.903900,70.440308 465.146179,72.030533 
	C463.412628,68.950317 461.679047,65.870102 460.349731,62.416016 
	C462.506561,61.534492 464.259094,61.026840 466.397583,60.394257 
	C467.862579,60.200191 468.941681,60.131054 470.168762,60.272732 
	C470.886902,60.130520 471.457001,59.777493 472.389465,59.311554 
	C473.509674,59.157543 474.267487,59.116440 475.173035,59.284088 
	C475.889862,59.143681 476.459015,58.794521 477.389679,58.327042 
	C478.510651,58.168652 479.270111,58.128582 480.177246,58.295456 
	C480.892944,58.155209 481.460968,57.808018 482.390015,57.338627 
	C483.512054,57.178379 484.273102,57.140327 485.180786,57.306755 
	C485.895111,57.172523 486.462769,56.833820 487.390137,56.365299 
	C488.512939,56.195545 489.276062,56.155602 490.259155,56.347641 
	C491.584167,54.999474 493.731842,53.326878 493.601471,51.856274 
	C493.187439,47.187050 492.051239,42.561050 490.899567,37.992619 
	C490.610107,36.844269 489.218323,35.973797 488.237061,34.664253 
	C488.036957,33.710697 487.932983,33.068512 487.867859,32.069191 
	C487.261627,30.827665 486.616547,29.943270 485.971436,29.058882 
	C485.971436,29.058889 485.940063,29.038565 485.960510,28.610191 
	C485.976379,24.666412 485.971802,21.151007 485.967194,17.635601 
z"/>
<path fill="#F1CFAE" opacity="1.000000" stroke="none" 
	d="
M466.011658,60.519188 
	C464.259094,61.026840 462.506561,61.534492 460.362793,62.059959 
	C455.409943,59.713516 449.581360,58.356937 446.661865,54.686478 
	C444.023743,51.369793 444.564941,45.524273 443.384033,39.034912 
	C440.974213,37.512768 441.090363,34.110508 444.881958,30.071457 
	C442.643829,28.681299 440.765930,27.488596 438.862183,26.338652 
	C436.095917,24.667711 432.857910,22.787270 434.493134,19.080040 
	C436.111267,15.411625 439.612305,16.318113 442.709961,17.470615 
	C443.484894,17.758924 444.275146,18.006050 445.416718,18.399595 
	C446.560425,21.845764 447.078949,25.262838 448.250153,28.439251 
	C448.789764,29.902763 450.606689,30.895313 452.278625,32.015480 
	C452.712769,31.929554 452.823334,31.823666 452.946960,32.223366 
	C455.090454,35.425163 460.239532,36.018547 459.045990,41.088802 
	C459.045990,41.088802 458.968445,41.521244 458.591949,41.815964 
	C458.253601,43.121613 458.123718,44.175186 458.367126,45.134010 
	C458.789581,46.798050 459.442871,48.403484 459.999359,50.033493 
	C459.999359,50.033489 459.931915,50.480759 459.624084,50.769516 
	C459.026367,51.397556 458.736511,51.736839 458.446655,52.076130 
	C458.965912,52.349133 459.485168,52.622128 460.004425,52.895119 
	C460.004425,52.895119 460.031525,52.934978 459.951599,53.319637 
	C460.563232,55.091984 461.846863,56.486576 461.830750,57.866013 
	C461.789276,61.424091 464.112976,60.468563 466.011658,60.519188 
z"/>
<path fill="#F0EFEF" opacity="1.000000" stroke="none" 
	d="
M464.838989,72.261673 
	C473.903900,70.440308 482.661621,68.850082 491.786377,67.087250 
	C493.014191,68.029839 493.874969,69.145035 494.752319,70.592850 
	C489.530548,72.143333 484.311676,73.454910 479.047943,74.551071 
	C474.367096,75.525848 469.636505,76.261887 464.509949,77.061523 
	C464.238586,75.510765 464.385193,74.001785 464.838989,72.261673 
z"/>
<path fill="#F2F4F7" opacity="1.000000" stroke="none" 
	d="
M655.161621,46.492859 
	C652.340332,44.897968 652.005798,42.912605 653.360657,39.900211 
	C657.709900,30.229986 661.837402,20.457075 665.876282,10.652030 
	C667.164978,7.523771 668.885498,6.752009 672.032288,7.944442 
	C678.668640,10.459230 684.244202,13.951051 686.226746,22.200394 
	C686.682983,30.468630 684.095886,37.012070 679.693604,42.832550 
	C674.759827,49.355507 667.974976,51.211102 660.245178,48.478073 
	C658.531006,47.871998 656.855103,47.157459 655.161621,46.492859 
M675.707031,23.092567 
	C674.835938,21.602127 673.964783,20.111687 672.540527,17.674883 
	C669.438599,24.947832 666.785950,31.167269 663.564392,38.720722 
	C666.440063,37.760246 667.779480,37.312885 669.785828,36.821823 
	C675.690491,33.171310 676.835999,30.669941 675.707031,23.092567 
z"/>
<path fill="#0B1118" opacity="1.000000" stroke="none" 
	d="
M655.032593,46.889908 
	C656.855103,47.157459 658.531006,47.871998 660.245178,48.478073 
	C667.974976,51.211102 674.759827,49.355507 679.693604,42.832550 
	C684.095886,37.012070 686.682983,30.468630 686.361633,22.557978 
	C690.833313,28.277962 688.779602,34.473915 686.345825,40.596615 
	C685.556641,42.582066 684.284302,44.375481 683.161377,46.588478 
	C679.919434,49.615623 676.748962,52.311016 673.219971,55.080448 
	C667.904785,54.024780 662.867065,53.148376 658.043152,51.604038 
	C656.676086,51.166363 655.932922,48.779751 655.032593,46.889908 
z"/>
<path fill="#F5D4B4" opacity="1.000000" stroke="none" 
	d="
M485.837219,17.215128 
	C485.971802,21.151007 485.976379,24.666412 485.948975,28.595484 
	C485.029114,26.503288 484.122345,24.003887 483.261261,21.488844 
	C482.829102,20.226614 482.480194,18.935894 482.043884,17.318583 
	C482.901947,16.402670 483.809753,15.826234 484.951660,15.191134 
	C485.359619,15.686532 485.533447,16.240593 485.837219,17.215128 
z"/>
<path fill="#F2F4F7" opacity="1.000000" stroke="none" 
	d="
M292.924194,51.841530 
	C289.664124,51.988297 288.335571,50.265366 287.638824,47.191956 
	C285.544128,37.951969 283.297699,28.740955 280.838318,19.591795 
	C279.887146,16.053225 280.857330,14.446671 284.303925,13.384483 
	C292.152771,10.965578 299.071930,11.700825 304.828674,18.918438 
	C313.911530,35.307888 309.802246,46.313377 292.924194,51.841530 
M294.940979,22.469435 
	C293.527832,21.957470 292.114685,21.445503 289.737701,20.584347 
	C291.505981,27.793400 292.993195,33.856518 294.770813,41.103653 
	C296.413910,38.712902 297.223236,37.535343 298.607971,35.831680 
	C301.039673,30.703901 299.644409,26.520290 294.940979,22.469435 
z"/>
<path fill="#0B1118" opacity="1.000000" stroke="none" 
	d="
M293.029419,52.235382 
	C309.802246,46.313377 313.911530,35.307888 305.032806,19.180157 
	C306.877167,20.248547 309.381775,21.348957 310.300812,23.225809 
	C312.092834,26.885229 312.997375,30.979239 314.629211,35.062836 
	C313.727448,38.893139 312.465851,42.553898 311.072235,46.552101 
	C307.519440,50.908955 303.274078,53.529259 297.953339,53.859589 
	C296.378632,53.957344 294.742554,53.066864 293.029419,52.235382 
z"/>
<path fill="#4B4B4B" opacity="1.000000" stroke="none" 
	d="
M466.397583,60.394257 
	C464.112976,60.468563 461.789276,61.424091 461.830750,57.866013 
	C461.846863,56.486576 460.563232,55.091984 459.928864,53.327629 
	C469.559723,52.557930 478.929596,51.181736 488.179840,47.311939 
	C487.205963,42.143574 486.267242,37.161846 485.961426,32.043407 
	C487.005859,32.079906 487.417450,32.253117 487.829010,32.426327 
	C487.932983,33.068512 488.036957,33.710697 488.200592,35.062893 
	C489.398193,41.461845 490.639404,47.133915 491.574463,52.856018 
	C491.734131,53.832851 490.584167,55.023689 490.039185,56.115662 
	C489.276062,56.155602 488.512939,56.195545 487.106689,56.289360 
	C485.987091,56.596241 485.510590,56.849251 485.034119,57.102268 
	C484.273102,57.140327 483.512054,57.178379 482.104279,57.265369 
	C480.981537,57.572376 480.505554,57.830441 480.029572,58.088509 
	C479.270111,58.128582 478.510651,58.168652 477.103088,58.251816 
	C475.978455,58.555046 475.501892,58.815186 475.025330,59.075329 
	C474.267487,59.116440 473.509674,59.157543 472.101562,59.235733 
	C470.974457,59.535858 470.497620,59.798893 470.020782,60.061920 
	C468.941681,60.131054 467.862579,60.200191 466.397583,60.394257 
z"/>
<path fill="#D3D6D0" opacity="1.000000" stroke="none" 
	d="
M459.359863,40.907673 
	C460.239532,36.018547 455.090454,35.425163 453.007111,32.270695 
	C454.909149,32.773281 457.023163,33.396725 458.804199,34.539223 
	C461.274384,36.123783 462.030151,38.293720 459.359863,40.907673 
z"/>
<path fill="#D3D6D0" opacity="1.000000" stroke="none" 
	d="
M460.282898,49.835594 
	C459.442871,48.403484 458.789581,46.798050 458.367126,45.134010 
	C458.123718,44.175186 458.253601,43.121613 458.540588,42.029541 
	C460.438171,44.289082 463.654816,46.266106 460.282898,49.835594 
z"/>
<path fill="#F1CFAE" opacity="1.000000" stroke="none" 
	d="
M487.867859,32.069191 
	C487.417450,32.253117 487.005859,32.079906 486.267212,31.836361 
	C485.920135,31.087912 485.900177,30.409800 485.925842,29.395283 
	C486.616547,29.943270 487.261627,30.827665 487.867859,32.069191 
z"/>
<path fill="#D3D6D0" opacity="1.000000" stroke="none" 
	d="
M460.045319,52.566936 
	C459.485168,52.622128 458.965912,52.349133 458.446655,52.076130 
	C458.736511,51.736839 459.026367,51.397556 459.597595,50.994122 
	C459.948029,51.366230 460.017120,51.802490 460.045319,52.566936 
z"/>
<path fill="#FCF6F7" opacity="1.000000" stroke="none" 
	d="
M821.409302,107.112442 
	C822.320129,104.363060 823.231018,101.613670 824.383545,98.232742 
	C820.070618,95.680580 815.516113,93.759964 810.961609,91.839340 
	C810.681824,90.937500 809.937195,89.870255 810.190613,89.158173 
	C815.633606,73.863899 821.188171,58.609356 826.945129,42.729347 
	C846.299377,49.882931 865.090027,56.828205 884.045776,64.412720 
	C883.146362,69.337425 882.081970,73.622887 881.044434,78.278275 
	C883.445251,83.431717 885.819153,88.215240 888.178101,93.403885 
	C885.868530,100.704926 883.621521,107.617653 881.208374,114.471909 
	C880.955139,115.191032 879.721069,115.564819 878.668335,115.916031 
	C877.674133,114.177116 876.953552,112.621017 876.104004,110.702812 
	C873.409302,105.368576 870.843506,100.396446 868.495728,95.173058 
	C869.828857,94.610435 871.054077,93.839020 872.038452,94.074432 
	C874.932861,94.766586 877.731689,95.858391 880.567871,96.793724 
	C880.751587,96.280540 880.935242,95.767365 881.118896,95.254189 
	C876.661926,92.265297 871.601685,90.699036 866.065063,89.545357 
	C863.979858,84.279709 860.988708,80.672775 855.013672,80.342499 
	C853.802185,79.528679 852.720642,79.009521 851.488159,78.171333 
	C851.038757,76.971703 850.740295,76.091095 850.803345,75.070488 
	C852.220398,72.714691 853.208923,70.463791 854.345825,68.290527 
	C856.580139,64.019562 855.258545,61.517944 850.750183,60.132969 
	C846.799561,58.919331 842.957397,57.354511 839.060852,55.962704 
	C829.410156,52.515526 828.777283,52.892414 826.174927,62.752907 
	C825.398682,65.694305 826.151550,67.544983 829.089233,68.537964 
	C834.884521,70.496811 840.654663,72.530182 846.623840,74.679672 
	C847.543579,75.877708 848.274658,76.928802 848.968994,78.314873 
	C848.447449,79.873932 847.962769,81.098022 847.089233,82.170288 
	C838.778198,79.305969 831.067566,75.854561 822.984680,73.703468 
	C822.752014,74.431900 822.519348,75.160324 822.286682,75.888756 
	C830.299683,78.709373 838.312683,81.529991 846.383423,84.726303 
	C845.878723,87.027397 845.316223,88.952782 844.411438,90.815018 
	C835.935669,87.865059 827.802185,84.978249 819.668762,82.091446 
	C819.397949,82.795540 819.127136,83.499634 818.856323,84.203728 
	C827.720032,87.995766 836.867188,91.117905 846.263489,94.438309 
	C847.550049,96.696472 848.603394,98.719002 849.518066,101.064880 
	C849.433777,102.450562 849.488159,103.512894 849.607361,105.841919 
	C840.819092,98.564621 833.422424,102.809242 825.898499,106.585594 
	C824.632812,107.220879 822.917114,106.959518 821.409302,107.112442 
M861.177856,68.163475 
	C865.508789,70.880043 870.042358,72.859726 875.103088,72.922516 
	C875.285950,72.285469 875.468811,71.648415 875.651611,71.011360 
	C870.847595,69.806221 866.043579,68.601089 861.177856,68.163475 
z"/>
<path fill="#394D63" opacity="1.000000" stroke="none" 
	d="
M869.077393,121.171379 
	C867.675964,124.397522 866.274536,127.623657 864.525391,130.884796 
	C862.139954,126.619499 860.000122,122.363197 858.118347,117.995720 
	C857.435059,116.409882 857.367859,114.558556 857.282715,112.183281 
	C857.642273,110.291451 857.738708,109.044701 857.836487,107.780022 
	C856.239685,108.742081 855.101196,109.427971 853.962769,110.113861 
	C853.759216,109.539070 853.555664,108.964272 853.085693,107.877579 
	C852.532043,106.261757 852.244812,105.157814 852.105774,103.724976 
	C853.131287,101.261078 854.008606,99.126099 855.245972,97.026825 
	C857.382385,99.505554 859.463318,101.786026 860.871521,104.425438 
	C863.795837,109.906563 866.363281,115.578117 869.077393,121.171379 
z"/>
<path fill="#FC7B66" opacity="1.000000" stroke="none" 
	d="
M881.017517,77.908348 
	C882.081970,73.622887 883.146362,69.337425 884.311584,64.698990 
	C887.247437,69.950714 890.082520,75.555397 892.557983,81.467667 
	C888.471436,80.486282 884.744446,79.197311 881.017517,77.908348 
z"/>
<path fill="#B19CD3" opacity="1.000000" stroke="none" 
	d="
M851.957581,104.053871 
	C852.244812,105.157814 852.532043,106.261757 852.823669,107.712219 
	C850.281372,107.432755 847.500854,107.258141 845.237183,106.085663 
	C840.689880,103.730400 836.773010,104.790443 832.706604,107.095924 
	C829.693298,108.804359 826.513855,110.219673 822.751160,112.092743 
	C822.110779,110.391685 821.520752,108.824371 821.170044,107.184753 
	C822.917114,106.959518 824.632812,107.220879 825.898499,106.585594 
	C833.422424,102.809242 840.819092,98.564621 849.607361,105.841919 
	C849.488159,103.512894 849.433777,102.450562 849.772766,101.197571 
	C850.763245,102.022560 851.360413,103.038216 851.957581,104.053871 
z"/>
<path fill="#B19CD3" opacity="1.000000" stroke="none" 
	d="
M878.942017,116.098831 
	C879.721069,115.564819 880.955139,115.191032 881.208374,114.471909 
	C883.621521,107.617653 885.868530,100.704926 888.426819,93.181000 
	C890.119629,89.361069 891.548889,86.169144 892.978210,82.977219 
	C893.515747,83.909401 894.727905,85.088593 894.490479,85.737038 
	C890.339722,97.073074 886.011536,108.344109 881.162109,119.623383 
	C880.022339,118.772362 879.442322,117.927246 878.895874,116.837234 
	C878.929443,116.592331 878.942017,116.098816 878.942017,116.098831 
z"/>
<path fill="#D3D6D0" opacity="1.000000" stroke="none" 
	d="
M892.966187,82.707573 
	C891.548889,86.169144 890.119629,89.361069 888.441650,92.775879 
	C885.819153,88.215240 883.445251,83.431717 881.044434,78.278267 
	C884.744446,79.197311 888.471436,80.486282 892.551636,81.837791 
	C892.921387,82.079529 892.937744,82.258728 892.966187,82.707573 
z"/>
<path fill="#394D63" opacity="1.000000" stroke="none" 
	d="
M878.862305,117.082138 
	C879.442322,117.927246 880.022339,118.772362 880.859131,119.800140 
	C881.148132,120.378021 881.180298,120.773224 881.283203,121.459213 
	C878.150452,121.211586 874.946960,120.673172 871.375916,119.672424 
	C871.019714,118.104332 871.031067,116.998581 871.442566,115.904449 
	C874.182556,116.304756 876.522461,116.693451 878.862305,117.082138 
z"/>
<path fill="#B19CD3" opacity="1.000000" stroke="none" 
	d="
M811.021362,92.208969 
	C815.516113,93.759964 820.070618,95.680580 824.428711,97.844597 
	C819.848572,96.251526 815.464844,94.415062 811.021362,92.208969 
z"/>
<path fill="#B19CD3" opacity="1.000000" stroke="none" 
	d="
M854.029663,110.452118 
	C855.101196,109.427971 856.239685,108.742081 857.836487,107.780022 
	C857.738708,109.044701 857.642273,110.291451 857.294922,111.771294 
	C856.061462,111.599716 855.078979,111.195045 854.029663,110.452118 
z"/>
<path fill="#E5E6EA" opacity="1.000000" stroke="none" 
	d="
M138.077682,118.602486 
	C133.664474,119.953690 129.233902,122.891685 124.361832,119.065506 
	C122.347549,115.253883 120.448769,111.570358 119.127869,107.690109 
	C115.235832,96.256889 111.572784,84.745728 107.764771,72.652039 
	C107.833511,71.704712 107.957588,71.370407 108.478706,71.059074 
	C110.799347,70.581062 112.752594,70.172302 114.641914,69.564743 
	C132.393127,63.856319 150.133423,58.113911 167.876862,52.381321 
	C172.287552,66.013710 176.698227,79.646103 181.157257,93.680016 
	C169.100418,98.079704 157.007538,102.115921 144.879471,106.043556 
	C142.488754,106.817772 141.034836,107.570969 140.928238,110.677979 
	C140.840897,113.223465 139.067947,115.711113 138.077682,118.602486 
M160.929520,91.086304 
	C161.570969,89.975288 162.974655,88.648323 162.730942,87.788071 
	C161.071243,81.929909 159.064743,76.169998 156.732254,69.039558 
	C154.197098,71.116020 152.173615,72.316231 150.788757,74.031929 
	C149.304108,75.871246 148.420319,78.195549 147.241501,80.368645 
	C140.725235,75.433205 136.444275,74.885735 132.497513,78.162270 
	C128.786560,81.243042 128.400955,87.176437 131.546478,92.795998 
	C133.966690,97.119728 138.063126,98.883636 142.404800,97.471519 
	C147.641006,95.768471 148.961273,92.360992 148.221054,82.858170 
	C150.238724,82.196335 152.166290,81.564041 154.297577,80.864937 
	C155.165924,83.427216 155.862961,86.182831 157.061005,88.699997 
	C157.593796,89.819420 159.136795,90.458023 160.929520,91.086304 
z"/>
<path fill="#F9745D" opacity="1.000000" stroke="none" 
	d="
M167.877350,52.044830 
	C150.133423,58.113911 132.393127,63.856319 114.641914,69.564743 
	C112.752594,70.172302 110.799347,70.581062 108.194092,70.832680 
	C106.301155,66.547798 105.089874,62.512283 103.878601,58.476768 
	C107.030479,57.307808 110.182365,56.138847 114.040848,54.886353 
	C116.349915,53.658962 117.952393,52.515114 120.145584,50.949615 
	C120.981041,52.939648 121.744446,54.758072 122.132996,56.507935 
	C120.602692,57.893692 119.288940,59.267067 118.459938,60.888306 
	C118.333450,61.135677 120.815620,63.453018 121.452667,63.200699 
	C122.757034,62.684078 123.627800,61.072697 124.797028,59.553337 
	C124.922699,56.513027 124.928452,53.831482 124.934212,51.149933 
	C130.395157,49.403221 135.856094,47.656513 142.020493,45.817623 
	C144.252487,44.639561 145.781036,43.553680 147.090973,42.623093 
	C155.434433,44.776344 146.443329,49.526394 149.115509,53.750893 
	C150.645447,52.231358 152.619858,51.173450 152.958191,49.731628 
	C153.525635,47.313362 153.050949,44.650551 153.014786,42.090645 
	C163.739868,38.423409 163.742004,38.422726 167.229828,49.338703 
	C167.478836,50.118038 167.663345,50.917980 167.877350,52.044830 
z"/>
<path fill="#E24D37" opacity="1.000000" stroke="none" 
	d="
M103.478531,58.554550 
	C105.089874,62.512283 106.301155,66.547798 107.797043,70.809708 
	C107.957588,71.370407 107.833511,71.704712 107.585373,72.274147 
	C104.874031,73.280998 102.286758,74.052727 99.338623,74.930710 
	C97.265808,70.689453 95.553833,66.341942 93.619553,61.429863 
	C97.219521,60.365147 100.148994,59.498737 103.478531,58.554550 
z"/>
<path fill="#D3D6D0" opacity="1.000000" stroke="none" 
	d="
M152.747925,41.860474 
	C153.050949,44.650551 153.525635,47.313362 152.958191,49.731628 
	C152.619858,51.173450 150.645447,52.231358 149.115509,53.750893 
	C146.443329,49.526394 155.434433,44.776344 147.090973,42.623093 
	C145.781036,43.553680 144.252487,44.639561 142.394257,45.683067 
	C141.528259,42.347286 142.499039,39.618141 145.676147,38.360634 
	C148.868790,37.096985 150.980072,38.930538 152.747925,41.860474 
z"/>
<path fill="#D3D6D0" opacity="1.000000" stroke="none" 
	d="
M122.507843,56.576492 
	C121.744446,54.758072 120.981041,52.939648 120.145584,50.949615 
	C117.952393,52.515114 116.349915,53.658962 114.410706,54.768272 
	C113.428253,51.440491 114.385651,48.204697 117.572807,47.658054 
	C119.623077,47.306412 122.123505,49.579414 124.678192,50.912975 
	C124.928452,53.831482 124.922699,56.513027 124.458694,59.639751 
	C123.126038,60.178703 122.251610,60.272480 121.094627,60.396557 
	C121.662872,58.860535 122.085358,57.718513 122.507843,56.576492 
z"/>
<path fill="#70A9D8" opacity="1.000000" stroke="none" 
	d="
M305.953674,74.320511 
	C306.806030,74.166801 307.431396,74.166801 308.056793,74.166801 
	C308.047668,74.364822 308.038544,74.562836 308.029449,74.760857 
	C307.261871,74.665314 306.494293,74.569771 305.953674,74.320511 
z"/>
<path fill="#70A9D8" opacity="1.000000" stroke="none" 
	d="
M306.302124,72.139648 
	C306.822296,72.206161 307.089508,72.314568 307.356750,72.422958 
	C306.889252,72.529587 306.423920,72.649216 305.951813,72.728233 
	C305.884369,72.739502 305.784027,72.554131 305.698914,72.459770 
	C305.815674,72.367020 305.932404,72.274277 306.302124,72.139648 
z"/>
<path fill="#B2E3FC" opacity="1.000000" stroke="none" 
	d="
M972.967163,25.989296 
	C972.701477,23.090708 973.736389,21.527742 976.252136,22.210089 
	C977.617004,22.580273 979.277588,23.861687 979.692200,25.103479 
	C980.026794,26.105886 978.857056,28.650089 978.068909,28.780310 
	C976.183655,29.091789 973.167236,30.316046 972.967163,25.989296 
z"/>
<path fill="#B2E3FC" opacity="1.000000" stroke="none" 
	d="
M979.588196,46.436615 
	C977.626221,47.284775 975.830811,47.747952 973.423340,48.369015 
	C973.423340,45.625595 973.423340,43.644054 973.423340,41.655586 
	C979.586182,40.280010 979.867004,40.477753 979.588196,46.436615 
z"/>
<path fill="#B2E3FC" opacity="1.000000" stroke="none" 
	d="
M955.416870,28.859455 
	C953.056824,22.738480 954.181274,21.491066 960.741211,22.768215 
	C960.741211,24.583466 960.741211,26.457869 960.741211,28.974941 
	C958.971252,28.974941 957.399231,28.974941 955.416870,28.859455 
z"/>
<path fill="#B4E6FD" opacity="1.000000" stroke="none" 
	d="
M967.001648,29.018631 
	C963.014648,28.981838 963.757629,26.263916 964.087708,24.401670 
	C964.248047,23.497623 965.977539,22.285755 966.997559,22.284876 
	C968.017944,22.283995 969.751587,23.493343 969.911682,24.395927 
	C970.242126,26.257990 970.986267,28.975098 967.001648,29.018631 
z"/>
<path fill="#B4E6FD" opacity="1.000000" stroke="none" 
	d="
M978.616272,32.115860 
	C979.043457,34.060360 979.062744,35.871555 979.082031,37.682751 
	C977.319275,37.687553 975.461670,38.009857 973.844604,37.526917 
	C973.269531,37.355183 972.712769,34.426132 973.122681,34.136703 
	C974.592224,33.099045 976.479187,32.652576 978.616272,32.115860 
z"/>
<path fill="#B8E9FF" opacity="1.000000" stroke="none" 
	d="
M970.044861,35.874489 
	C968.372864,36.815662 966.730469,37.324131 965.088013,37.832581 
	C964.751404,36.358742 964.045959,34.832531 964.244507,33.434731 
	C964.334412,32.801552 966.610779,31.734900 967.207520,32.074234 
	C968.411987,32.759151 969.146240,34.270992 970.044861,35.874489 
z"/>
<path fill="#B2E3FC" opacity="1.000000" stroke="none" 
	d="
M29.220736,47.887718 
	C25.285889,47.403763 25.481773,44.338551 26.427517,42.702396 
	C27.207781,41.352524 29.978886,41.153416 32.579769,40.177094 
	C32.516468,43.976723 35.433022,47.634617 29.220736,47.887718 
z"/>
<path fill="#B2E3FC" opacity="1.000000" stroke="none" 
	d="
M29.989296,29.032902 
	C27.090624,29.298700 25.527752,28.263744 26.210070,25.747974 
	C26.580244,24.383102 27.861599,22.722443 29.103422,22.307829 
	C30.105766,21.973164 32.649979,23.142773 32.780293,23.931025 
	C33.091969,25.816307 34.315826,28.832582 29.989296,29.032902 
z"/>
<path fill="#B2E3FC" opacity="1.000000" stroke="none" 
	d="
M50.436588,22.411736 
	C51.284771,24.373667 51.747959,26.169125 52.369045,28.576641 
	C49.625614,28.576641 47.644081,28.576641 45.655598,28.576641 
	C44.279964,22.413879 44.477688,22.133060 50.436588,22.411736 
z"/>
<path fill="#B4E6FD" opacity="1.000000" stroke="none" 
	d="
M32.849838,33.271343 
	C32.502644,35.108040 32.430618,37.252819 31.486710,37.753338 
	C30.294445,38.385548 28.196732,38.060421 26.876482,37.388298 
	C26.204447,37.046165 25.835701,34.796242 26.269575,33.831200 
	C27.784258,30.462175 30.343302,31.721573 32.849838,33.271343 
z"/>
<path fill="#B4E6FD" opacity="1.000000" stroke="none" 
	d="
M42.089363,25.097383 
	C42.338947,27.990505 41.370968,29.530117 38.787792,28.922098 
	C37.707153,28.667740 36.084805,27.356640 36.097519,26.547819 
	C36.120586,25.079725 37.183163,23.627968 37.811867,22.169390 
	C39.235703,22.999378 40.659534,23.829367 42.089363,25.097383 
z"/>
<path fill="#B8E9FF" opacity="1.000000" stroke="none" 
	d="
M35.956810,35.871132 
	C36.852459,34.268223 37.584404,32.755638 38.787327,32.073078 
	C39.386890,31.732872 41.663353,32.795452 41.754017,33.428051 
	C41.954330,34.825748 41.250774,36.352985 40.915947,37.827377 
	C39.273136,37.319599 37.630322,36.811821 35.956810,35.871132 
z"/>
<path fill="#B2E3FC" opacity="1.000000" stroke="none" 
	d="
M27.416832,142.859451 
	C25.056971,136.738541 26.181501,135.491043 32.741310,136.768234 
	C32.741310,138.583466 32.741310,140.457870 32.741310,142.974945 
	C30.971251,142.974945 29.399210,142.974945 27.416832,142.859451 
z"/>
<path fill="#B2E3FC" opacity="1.000000" stroke="none" 
	d="
M49.733582,154.997314 
	C50.559277,156.975037 50.956699,158.925583 51.354126,160.876129 
	C49.661465,161.154922 47.792320,161.973999 46.345127,161.501297 
	C45.531670,161.235596 44.656776,158.405060 45.169506,157.503143 
	C45.868973,156.272736 47.865105,155.779465 49.733582,154.997314 
z"/>
<path fill="#B2E3FC" opacity="1.000000" stroke="none" 
	d="
M32.857964,156.298004 
	C32.999664,159.244171 33.904816,162.178284 29.481382,161.952133 
	C26.081490,161.778320 25.560116,159.589813 26.221703,157.281357 
	C27.370836,153.271713 30.221121,154.802246 32.857964,156.298004 
z"/>
<path fill="#B4E6FD" opacity="1.000000" stroke="none" 
	d="
M33.018639,148.998398 
	C32.981747,152.985382 30.263756,152.242325 28.401554,151.912292 
	C27.497549,151.752075 26.285744,150.022369 26.284864,149.002274 
	C26.283983,147.981964 27.493441,146.248322 28.395966,146.088257 
	C30.257998,145.758011 32.975189,145.013672 33.018639,148.998398 
z"/>
<path fill="#B4E6FD" opacity="1.000000" stroke="none" 
	d="
M39.871830,155.008926 
	C40.793800,157.007507 41.278698,158.977951 41.763596,160.948395 
	C40.388947,161.232895 38.624641,162.163940 37.742050,161.632004 
	C36.725845,161.019562 35.791561,158.914993 36.103027,157.824417 
	C36.437077,156.654755 38.261017,155.910614 39.871830,155.008926 
z"/>
<path fill="#B8E9FF" opacity="1.000000" stroke="none" 
	d="
M42.043190,148.128860 
	C41.147556,149.731781 40.415627,151.244370 39.212719,151.926956 
	C38.613144,152.267151 36.336666,151.204590 36.245998,150.571991 
	C36.045673,149.174286 36.749218,147.647049 37.084038,146.172653 
	C38.726852,146.680420 40.369671,147.188171 42.043190,148.128860 
z"/>
<path fill="#B2E3FC" opacity="1.000000" stroke="none" 
	d="
M972.966919,159.014481 
	C973.160583,154.686844 976.177979,155.906219 978.063477,156.219131 
	C978.853882,156.350311 980.025513,158.890381 979.692200,159.892166 
	C979.278748,161.134537 977.620178,162.418976 976.256042,162.789642 
	C973.744080,163.472214 972.701538,161.914932 972.966919,159.014481 
z"/>
<path fill="#B2E3FC" opacity="1.000000" stroke="none" 
	d="
M961.002686,160.733582 
	C959.024963,161.559235 957.074402,161.956650 955.123901,162.354050 
	C954.845093,160.661407 954.026123,158.792328 954.498718,157.345093 
	C954.764343,156.531693 957.594971,155.656769 958.496887,156.169495 
	C959.727295,156.868973 960.220581,158.865097 961.002686,160.733582 
z"/>
<path fill="#B2E3FC" opacity="1.000000" stroke="none" 
	d="
M979.896790,141.058960 
	C978.047180,142.613953 976.201233,143.742569 973.372437,145.472137 
	C973.372437,141.788025 973.372437,139.917313 973.372437,137.678040 
	C976.133301,137.207382 979.416443,135.331665 979.896790,141.058960 
z"/>
<path fill="#B4E6FD" opacity="1.000000" stroke="none" 
	d="
M975.160278,153.054855 
	C974.302368,151.230743 973.882446,149.437149 973.462524,147.643539 
	C975.034180,147.423325 976.748169,146.735764 978.124939,147.155212 
	C978.973450,147.413742 980.077087,150.014038 979.726929,150.426819 
	C978.713867,151.621017 977.023010,152.240341 975.160278,153.054855 
z"/>
<path fill="#B4E6FD" opacity="1.000000" stroke="none" 
	d="
M970.053223,158.157562 
	C969.241455,160.019699 968.624634,161.712158 967.431396,162.726486 
	C967.018127,163.077820 964.415344,161.978088 964.155762,161.130035 
	C963.734497,159.753632 964.420532,158.038330 964.639160,156.466064 
	C966.433411,156.884583 968.227722,157.303101 970.053223,158.157562 
z"/>
<path fill="#B8E9FF" opacity="1.000000" stroke="none" 
	d="
M970.073853,149.998505 
	C968.694153,151.303314 967.376770,152.340347 965.879944,152.877930 
	C965.582703,152.984680 964.020508,151.141556 964.074463,150.260834 
	C964.143555,149.132141 965.258057,148.067429 965.922058,146.975159 
	C967.305786,147.835236 968.689575,148.695312 970.073853,149.998505 
z"/>
<path fill="#314559" opacity="1.000000" stroke="none" 
	d="
M871.042480,115.892822 
	C871.031067,116.998581 871.019714,118.104332 871.011841,119.626175 
	C870.531616,120.323845 870.048035,120.605423 869.320923,121.029182 
	C866.363281,115.578117 863.795837,109.906563 860.871521,104.425438 
	C859.463318,101.786026 857.382385,99.505554 855.286377,96.652298 
	C854.672607,93.616341 854.742798,90.880936 853.993591,88.392242 
	C853.023499,85.169838 851.399780,82.144196 850.461548,78.923035 
	C851.123474,78.704948 851.381287,78.597664 851.639160,78.490372 
	C852.720642,79.009521 853.802185,79.528679 854.978882,80.741669 
	C858.732727,90.627518 862.391357,99.819542 866.079956,109.356636 
	C867.754150,111.765411 869.398315,113.829117 871.042480,115.892822 
z"/>
<path fill="#F1CFAE" opacity="1.000000" stroke="none" 
	d="
M490.259155,56.347641 
	C490.584167,55.023689 491.734131,53.832851 491.574463,52.856018 
	C490.639404,47.133915 489.398193,41.461845 488.296692,35.374264 
	C489.218323,35.973797 490.610107,36.844269 490.899567,37.992619 
	C492.051239,42.561050 493.187439,47.187050 493.601471,51.856274 
	C493.731842,53.326878 491.584167,54.999474 490.259155,56.347641 
z"/>
<path fill="#F1CFAE" opacity="1.000000" stroke="none" 
	d="
M470.168762,60.272736 
	C470.497620,59.798893 470.974457,59.535858 471.739197,59.348644 
	C471.457001,59.777493 470.886902,60.130520 470.168762,60.272736 
z"/>
<path fill="#F1CFAE" opacity="1.000000" stroke="none" 
	d="
M475.173035,59.284081 
	C475.501892,58.815186 475.978455,58.555046 476.741577,58.370132 
	C476.459015,58.794521 475.889862,59.143681 475.173035,59.284081 
z"/>
<path fill="#F1CFAE" opacity="1.000000" stroke="none" 
	d="
M480.177246,58.295452 
	C480.505554,57.830441 480.981537,57.572376 481.743256,57.387569 
	C481.460968,57.808018 480.892944,58.155209 480.177246,58.295452 
z"/>
<path fill="#F1CFAE" opacity="1.000000" stroke="none" 
	d="
M485.180786,57.306747 
	C485.510590,56.849251 485.987091,56.596241 486.747009,56.419174 
	C486.462769,56.833820 485.895111,57.172523 485.180786,57.306747 
z"/>
<path fill="#131920" opacity="1.000000" stroke="none" 
	d="
M669.118896,36.865509 
	C667.779480,37.312885 666.440063,37.760246 663.564392,38.720722 
	C666.785950,31.167269 669.438599,24.947832 672.540527,17.674883 
	C673.964783,20.111687 674.835938,21.602127 675.334106,23.595325 
	C673.013733,28.353888 671.066284,32.609692 669.118896,36.865509 
z"/>
<path fill="#1179EB" opacity="1.000000" stroke="none" 
	d="
M669.452332,36.843658 
	C671.066284,32.609692 673.013733,28.353888 675.338562,23.985207 
	C676.835999,30.669941 675.690491,33.171310 669.452332,36.843658 
z"/>
<path fill="#131920" opacity="1.000000" stroke="none" 
	d="
M298.032532,36.357788 
	C297.223236,37.535343 296.413910,38.712902 294.770813,41.103653 
	C292.993195,33.856518 291.505981,27.793400 289.737701,20.584347 
	C292.114685,21.445503 293.527832,21.957470 295.024353,23.138252 
	C296.082672,27.990644 297.057587,32.174217 298.032532,36.357788 
z"/>
<path fill="#1179EB" opacity="1.000000" stroke="none" 
	d="
M298.320251,36.094734 
	C297.057587,32.174217 296.082672,27.990644 295.278381,23.417305 
	C299.644409,26.520290 301.039673,30.703901 298.320251,36.094734 
z"/>
<path fill="#394D63" opacity="1.000000" stroke="none" 
	d="
M866.050049,109.011551 
	C862.391357,99.819542 858.732727,90.627518 855.108826,81.036331 
	C860.988708,80.672775 863.979858,84.279709 866.091797,89.886940 
	C866.950256,92.170364 867.614014,93.797340 868.277710,95.424316 
	C870.843506,100.396446 873.409302,105.368576 875.684937,110.691589 
	C872.279846,110.365501 869.164917,109.688522 866.050049,109.011551 
z"/>
<path fill="#FE8D7B" opacity="1.000000" stroke="none" 
	d="
M846.435181,74.532745 
	C840.654663,72.530182 834.884521,70.496811 829.089233,68.537964 
	C826.151550,67.544983 825.398682,65.694305 826.174927,62.752907 
	C828.777283,52.892414 829.410156,52.515526 839.060852,55.962704 
	C842.957397,57.354511 846.799561,58.919331 850.750183,60.132969 
	C855.258545,61.517944 856.580139,64.019562 854.345825,68.290527 
	C853.208923,70.463791 852.220398,72.714691 850.631958,74.827377 
	C849.914734,74.167099 849.730347,73.609924 849.781738,72.746155 
	C850.822205,69.675880 852.996277,66.223656 852.049438,64.340714 
	C851.087769,62.428211 846.964355,61.158073 844.389893,61.394695 
	C843.057556,61.517159 841.520203,65.437370 841.203308,67.793480 
	C841.064636,68.824356 843.750000,70.235046 845.406250,71.690109 
	C845.918091,72.782219 846.176636,73.657486 846.435181,74.532745 
M831.752625,66.741966 
	C838.501038,69.043922 838.592712,68.971344 840.683655,59.354542 
	C838.903870,58.669361 837.098877,57.527534 835.219177,57.387218 
	C833.613037,57.267330 830.871948,57.888885 830.478516,58.900364 
	C829.572144,61.230495 826.423584,64.318527 831.752625,66.741966 
z"/>
<path fill="#5F7081" opacity="1.000000" stroke="none" 
	d="
M850.057556,79.033813 
	C851.399780,82.144196 853.023499,85.169838 853.993591,88.392242 
	C854.742798,90.880936 854.672607,93.616341 854.926331,96.616585 
	C854.008606,99.126099 853.131287,101.261078 852.105774,103.724960 
	C851.360413,103.038216 850.763245,102.022560 849.911377,100.874222 
	C848.603394,98.719002 847.550049,96.696472 846.257080,94.072662 
	C845.596191,92.606972 845.174988,91.742569 844.753723,90.878166 
	C845.316223,88.952782 845.878723,87.027397 846.607544,84.530930 
	C847.008545,83.413940 847.243286,82.868019 847.478027,82.322105 
	C847.962769,81.098022 848.447449,79.873932 849.196655,78.431839 
	C849.659973,78.487167 849.858765,78.760490 850.057556,79.033813 
z"/>
<path fill="#FE8D7B" opacity="1.000000" stroke="none" 
	d="
M844.411438,90.815018 
	C845.174988,91.742569 845.596191,92.606972 846.023804,93.837021 
	C836.867188,91.117905 827.720032,87.995766 818.856323,84.203728 
	C819.127136,83.499634 819.397949,82.795540 819.668762,82.091446 
	C827.802185,84.978249 835.935669,87.865059 844.411438,90.815018 
z"/>
<path fill="#FE8D7B" opacity="1.000000" stroke="none" 
	d="
M847.089233,82.170288 
	C847.243286,82.868019 847.008545,83.413940 846.549805,84.155228 
	C838.312683,81.529991 830.299683,78.709373 822.286682,75.888756 
	C822.519348,75.160324 822.752014,74.431900 822.984680,73.703468 
	C831.067566,75.854561 838.778198,79.305969 847.089233,82.170288 
z"/>
<path fill="#5F7081" opacity="1.000000" stroke="none" 
	d="
M866.079956,109.356628 
	C869.164917,109.688522 872.279846,110.365501 875.813843,111.053703 
	C876.953552,112.621017 877.674133,114.177116 878.668335,115.916016 
	C878.942017,116.098816 878.929443,116.592331 878.895874,116.837242 
	C876.522461,116.693451 874.182556,116.304756 871.442627,115.904442 
	C869.398315,113.829117 867.754150,111.765411 866.079956,109.356628 
z"/>
<path fill="#FE8D7B" opacity="1.000000" stroke="none" 
	d="
M868.495728,95.173050 
	C867.614014,93.797340 866.950256,92.170364 866.259766,90.201813 
	C871.601685,90.699036 876.661926,92.265297 881.118896,95.254189 
	C880.935242,95.767365 880.751587,96.280540 880.567871,96.793724 
	C877.731689,95.858391 874.932861,94.766586 872.038452,94.074432 
	C871.054077,93.839020 869.828857,94.610435 868.495728,95.173050 
z"/>
<path fill="#FE8D7B" opacity="1.000000" stroke="none" 
	d="
M861.208740,67.779709 
	C866.043579,68.601089 870.847595,69.806221 875.651611,71.011360 
	C875.468811,71.648415 875.285950,72.285469 875.103088,72.922516 
	C870.042358,72.859726 865.508789,70.880043 861.208740,67.779709 
z"/>
<path fill="#616264" opacity="1.000000" stroke="none" 
	d="
M850.461548,78.923019 
	C849.858765,78.760490 849.659973,78.487167 849.233459,78.096878 
	C848.274658,76.928802 847.543579,75.877708 846.623840,74.679680 
	C846.176636,73.657486 845.918091,72.782219 845.449402,71.291855 
	C844.972229,69.480408 844.705200,68.284065 844.438171,67.087723 
	C844.829529,66.959961 845.220825,66.832191 845.612183,66.704430 
	C846.923462,68.820541 848.234680,70.936653 849.546021,73.052757 
	C849.730347,73.609924 849.914734,74.167099 850.270508,74.967384 
	C850.740295,76.091095 851.038757,76.971703 851.488159,78.171341 
	C851.381287,78.597664 851.123474,78.704948 850.461548,78.923019 
z"/>
<path fill="#FC7B66" opacity="1.000000" stroke="none" 
	d="
M160.575394,91.200592 
	C159.136795,90.458023 157.593796,89.819420 157.061005,88.699997 
	C155.862961,86.182831 155.165924,83.427216 154.297577,80.864937 
	C152.166290,81.564041 150.238724,82.196335 148.221054,82.858170 
	C148.961273,92.360992 147.641006,95.768471 142.404800,97.471519 
	C138.063126,98.883636 133.966690,97.119728 131.546478,92.795998 
	C128.400955,87.176437 128.786560,81.243042 132.497513,78.162270 
	C136.444275,74.885735 140.725235,75.433205 147.241501,80.368645 
	C148.420319,78.195549 149.304108,75.871246 150.788757,74.031929 
	C152.173615,72.316231 154.197098,71.116020 156.732254,69.039558 
	C159.064743,76.169998 161.071243,81.929909 162.730942,87.788071 
	C162.974655,88.648323 161.570969,89.975288 160.575394,91.200592 
M142.822006,88.502754 
	C142.226730,86.793327 141.933548,84.871475 140.932281,83.447548 
	C140.239655,82.462563 137.995651,81.349815 137.456085,81.729858 
	C136.337112,82.517998 135.003296,84.569275 135.343536,85.552544 
	C136.196747,88.018333 137.932922,90.178596 139.314972,92.461395 
	C140.487946,91.392128 141.660904,90.322853 142.822006,88.502754 
z"/>
<path fill="#616264" opacity="1.000000" stroke="none" 
	d="
M122.132996,56.507935 
	C122.085358,57.718513 121.662872,58.860535 121.094627,60.396557 
	C122.251610,60.272480 123.126038,60.178703 124.338783,59.998512 
	C123.627800,61.072697 122.757034,62.684078 121.452667,63.200699 
	C120.815620,63.453018 118.333450,61.135677 118.459938,60.888306 
	C119.288940,59.267067 120.602692,57.893692 122.132996,56.507935 
z"/>
<path fill="#FCF6F7" opacity="1.000000" stroke="none" 
	d="
M831.374207,66.595245 
	C826.423584,64.318527 829.572144,61.230495 830.478516,58.900364 
	C830.871948,57.888885 833.613037,57.267330 835.219177,57.387218 
	C837.098877,57.527534 838.903870,58.669361 840.683655,59.354542 
	C838.592712,68.971344 838.501038,69.043922 831.374207,66.595245 
z"/>
<path fill="#F0EFEF" opacity="1.000000" stroke="none" 
	d="
M849.781738,72.746162 
	C848.234680,70.936653 846.923462,68.820541 845.612183,66.704430 
	C845.220825,66.832191 844.829529,66.959961 844.438171,67.087723 
	C844.705200,68.284065 844.972229,69.480408 845.196167,71.075012 
	C843.750000,70.235046 841.064636,68.824356 841.203308,67.793480 
	C841.520203,65.437370 843.057556,61.517159 844.389893,61.394695 
	C846.964355,61.158073 851.087769,62.428211 852.049438,64.340714 
	C852.996277,66.223656 850.822205,69.675880 849.781738,72.746162 
z"/>
<path fill="#E5E6EA" opacity="1.000000" stroke="none" 
	d="
M142.827942,88.878174 
	C141.660904,90.322853 140.487946,91.392128 139.314972,92.461395 
	C137.932922,90.178596 136.196747,88.018333 135.343536,85.552544 
	C135.003296,84.569275 136.337112,82.517998 137.456085,81.729858 
	C137.995651,81.349815 140.239655,82.462563 140.932281,83.447548 
	C141.933548,84.871475 142.226730,86.793327 142.827942,88.878174 
z"/>
</svg>